<svg width="512" height="512" viewBox="0 0 512 512" fill="none" xmlns="http://www.w3.org/2000/svg">
  <defs>
    <linearGradient id="bg" x1="64" y1="56" x2="448" y2="456" gradientUnits="userSpaceOnUse">
      <stop stop-color="#E8FFF1"/>
      <stop offset="1" stop-color="#C8F9DF"/>
    </linearGradient>
  </defs>

  <rect width="512" height="512" rx="84" fill="url(#bg)"/>
  <rect x="30" y="30" width="452" height="452" rx="70" stroke="#0B1530" stroke-opacity="0.08" stroke-width="8"/>

  <g transform="translate(0 4)">
    <circle cx="218" cy="165" r="42" fill="#0B1530"/>
    <path d="M144 246C154 199 183 173 218 173C253 173 282 199 292 246" fill="#16A34A"/>
    <path d="M144 246C154 199 183 173 218 173C253 173 282 199 292 246" stroke="#0B1530" stroke-opacity="0.12" stroke-width="4"/>
    <circle cx="202" cy="159" r="6" fill="#F8FAFC"/>
    <circle cx="234" cy="159" r="6" fill="#F8FAFC"/>
    <path d="M203 181C211 188 225 188 233 181" stroke="#F8FAFC" stroke-width="5" stroke-linecap="round"/>

    <path d="M286 120H386C405.88 120 422 136.12 422 156V212C422 231.88 405.88 248 386 248H348L318 274L324 248H286C266.12 248 250 231.88 250 212V156C250 136.12 266.12 120 286 120Z" fill="#0B1530"/>
    <circle cx="306" cy="184" r="10" fill="#16A34A"/>
    <circle cx="336" cy="184" r="10" fill="#16A34A"/>
    <circle cx="366" cy="184" r="10" fill="#16A34A"/>
  </g>

  <text x="256" y="390" text-anchor="middle" font-family="Arial, Helvetica, sans-serif" font-size="62" font-weight="900" fill="#0B1530" letter-spacing="1.5">9JA</text>
  <text x="256" y="445" text-anchor="middle" font-family="Arial, Helvetica, sans-serif" font-size="44" font-weight="800" fill="#0B0B0B" letter-spacing="1">CRUSE HUB</text>
</svg>