<svg width="700" height="300" viewBox="0 0 700 300" fill="none" xmlns="http://www.w3.org/2000/svg">
  <defs>
    <linearGradient id="bg" x1="70" y1="30" x2="630" y2="270" gradientUnits="userSpaceOnUse">
      <stop stop-color="#E8FFF1"/>
      <stop offset="1" stop-color="#C8F9DF"/>
    </linearGradient>
  </defs>

  <rect x="20" y="20" width="660" height="260" rx="42" fill="url(#bg)"/>
  <rect x="20" y="20" width="660" height="260" rx="42" stroke="#0B1530" stroke-opacity="0.12" stroke-width="4"/>

  <circle cx="250" cy="102" r="34" fill="#0B1530"/>
  <path d="M190 167C198 130 222 110 250 110C278 110 302 130 310 167" fill="#16A34A"/>
  <path d="M190 167C198 130 222 110 250 110C278 110 302 130 310 167" stroke="#0B1530" stroke-opacity="0.12" stroke-width="3"/>
  <circle cx="237" cy="97" r="5" fill="#F8FAFC"/>
  <circle cx="263" cy="97" r="5" fill="#F8FAFC"/>
  <path d="M239 115C246 121 254 121 261 115" stroke="#F8FAFC" stroke-width="4" stroke-linecap="round"/>

  <path d="M326 66H436C452.57 66 466 79.43 466 96V146C466 162.57 452.57 176 436 176H406L382 198L387 176H326C309.43 176 296 162.57 296 146V96C296 79.43 309.43 66 326 66Z" fill="#0B1530"/>
  <circle cx="346" cy="121" r="8" fill="#16A34A"/>
  <circle cx="371" cy="121" r="8" fill="#16A34A"/>
  <circle cx="396" cy="121" r="8" fill="#16A34A"/>

  <text x="350" y="222" text-anchor="middle" fill="#0B1530" font-family="Arial, Helvetica, sans-serif" font-size="62" font-weight="900" letter-spacing="1.5">9JA</text>
  <text x="350" y="258" text-anchor="middle" fill="#0B0B0B" font-family="Arial, Helvetica, sans-serif" font-size="46" font-weight="800" letter-spacing="1.4">CRUSE HUB</text>
</svg>